<?xml version="1.0" standalone="no"?><!DOCTYPE svg PUBLIC "-//W3C//DTD SVG 1.1//EN" "http://www.w3.org/Graphics/SVG/1.1/DTD/svg11.dtd"><svg t="1601217897638" class="icon" viewBox="0 0 1024 1024" version="1.1" xmlns="http://www.w3.org/2000/svg" p-id="5108" width="20" height="20" xmlns:xlink="http://www.w3.org/1999/xlink"><defs><style type="text/css"></style></defs><path d="M512 0C229.25312 0 0 229.2224 0 512c0 282.76736 229.26336 512 512 512 282.70592 0 512-229.23264 512-512 0-282.7776-229.2224-512-512-512m0.17408 671.0784c-0.23552 0.77824-0.27648 1.59744-0.37888 2.4064a8.8064 8.8064 0 0 1 0.37888-2.4064M782.62272 825.4464l-4.864-0.39936a32.2048 32.2048 0 0 1-25.09824-26.66496c-7.63904-52.64384-32.98304-102.98368-71.35232-141.76256-46.2848-46.7968-106.33216-72.72448-169.02144-72.93952-63.03744 0.12288-123.16672 25.99936-169.65632 72.94976-38.21568 38.66624-63.51872 88.99584-71.30112 141.79328a31.70304 31.70304 0 0 1-24.84224 26.54208l-5.07904 0.47104-3.67616-0.17408c-18.06336-2.43712-30.3616-18.57536-27.99616-35.88096a301.9264 301.9264 0 0 1 28.34432-93.39904c2.816-5.75488 5.81632-11.42784 8.97024-16.96768a319.81568 319.81568 0 0 1 50.3808-64.44032c4.33152-4.1984 8.73472-8.2944 13.27104-12.27776a307.5072 307.5072 0 0 1 83.43552-52.44928 201.43104 201.43104 0 0 1-20.20352-17.59232 194.42688 194.42688 0 0 1-57.22112-138.27072c0-52.16256 20.36736-101.24288 57.22112-138.24 36.25984-36.18816 84.3264-56.53504 135.34208-57.22112h4.99712a194.27328 194.27328 0 0 1 135.3216 57.22112 194.02752 194.02752 0 0 1 57.27232 138.24c0 52.1216-20.3776 101.21216-57.21088 138.21952-6.49216 6.43072-13.19936 12.288-20.24448 17.59232a307.4048 307.4048 0 0 1 83.49696 52.51072c4.49536 3.9424 8.79616 8.01792 13.16864 12.14464a312.40192 312.40192 0 0 1 50.36032 64.36864c3.2768 5.7856 6.35904 11.42784 9.12384 17.24416a302.81728 302.81728 0 0 1 28.3648 93.26592c1.19808 8.27392-0.9216 16.5888-6.08256 23.45984s-12.63616 11.28448-21.13536 12.47232l-4.11648 0.21504 0.03072-0.03072M509.85984 497.13152a10.05568 10.05568 0 0 1 3.81952-0.69632h0.4608c-1.46432 0.1024-2.92864 0.28672-4.28032 0.69632m143.9232-69.72416c0.14336-0.64512 0.3584-1.34144 0.60416-1.9968 2.39616-10.0864 3.79904-20.67456 3.79904-31.488 0-10.8544-1.36192-21.41184-3.79904-31.75424-0.23552-0.73728-0.39936-1.41312-0.60416-2.11968-16.0768-62.76096-75.30496-112.71168-141.42464-112.71168h-0.73728c-66.16064 0-125.27616 49.95072-141.42464 112.71168-0.14336 0.72704-0.37888 1.41312-0.50176 2.11968a131.98336 131.98336 0 0 0 0 63.24224c0.14336 0.65536 0.3584 1.35168 0.50176 1.9968 16.01536 61.2864 74.61888 106.92608 140.35968 107.43808h2.87744c65.6896-0.58368 124.22144-46.19264 140.32896-107.43808h0.02048m-143.9232 69.72416c1.34144-0.44032 2.7648-0.69632 4.28032-0.69632h-0.4608c-1.56672 0.1024-2.82624 0.32768-3.81952 0.69632m0 0z" p-id="5109"></path></svg>